# xmcd CD database file
#
# Track frame offsets:
#	150
#	15029
#	35662
#	52265
#	73560
#	90758
#	108789
#	129396
#	146908
#	173093
#	190076
#
# Disc length: 2801 seconds
#
# Revision: 2
# Processed by: cddbd v1.5.2PL0 Copyright (c) Steve Scherf et al.
# Submitted via: CDex 1.70beta2
#
DISCID=880aef0b
DTITLE=Sena Ehrhardt - Live My Life
DYEAR=2014
DGENRE=Blues
TTITLE0=Stakes Have Gone Up
TTITLE1=Things You Shouldn't Need To Know
TTITLE2=Slow Down
TTITLE3=Help Me Through The Day
TTITLE4=Live My Life
TTITLE5=Chilled To The Bone
TTITLE6=Too Late To Ask
TTITLE7=Everybody Is You
TTITLE8=If Trouble Was Money
TTITLE9=Did You Ever Love Me At All
TTITLE10=Come Closer
EXTD=YEAR: 2014
EXTT0=
EXTT1=
EXTT2=
EXTT3=
EXTT4=
EXTT5=
EXTT6=
EXTT7=
EXTT8=
EXTT9=
EXTT10=
PLAYORDER=
